<svg viewBox="0 0 1024 1024" xmlns="http://www.w3.org/2000/svg">
  <defs>
    <linearGradient id="bg" x1="0" y1="0" x2="0" y2="1">
      <stop offset="0%" stop-color="#bae6fd"/>
      <stop offset="65%" stop-color="#fef3c7"/>
      <stop offset="100%" stop-color="#fcd34d"/>
    </linearGradient>
    <linearGradient id="brown" x1="0" y1="0" x2="0" y2="1">
      <stop offset="0%" stop-color="#b45309"/>
      <stop offset="100%" stop-color="#78350f"/>
    </linearGradient>
    <linearGradient id="grass" x1="0" y1="0" x2="0" y2="1">
      <stop offset="0%" stop-color="#65a30d"/>
      <stop offset="100%" stop-color="#365314"/>
    </linearGradient>
    <linearGradient id="roof" x1="0" y1="0" x2="0" y2="1">
      <stop offset="0%" stop-color="#ef4444"/>
      <stop offset="100%" stop-color="#b91c1c"/>
    </linearGradient>
  </defs>

  <!-- Rounded background -->
  <rect width="1024" height="1024" rx="220" fill="url(#bg)"/>

  <!-- Flag pole and flag -->
  <rect x="508" y="60" width="8" height="80" fill="#1e293b" rx="2"/>
  <polygon points="516,72 580,90 516,110" fill="#fbbf24" stroke="#b45309" stroke-width="3"/>

  <!-- Roof -->
  <polygon points="180,260 512,140 844,260" fill="url(#roof)" stroke="#7f1d1d" stroke-width="4"/>
  <!-- Roof base -->
  <rect x="170" y="250" width="684" height="34" fill="#92400e" rx="6"/>

  <!-- Left pillar -->
  <rect x="170" y="280" width="60" height="540" fill="url(#brown)" rx="4"/>
  <!-- Right pillar -->
  <rect x="794" y="280" width="60" height="540" fill="url(#brown)" rx="4"/>
  <!-- Pillar horizontal grooves (decoration) -->
  <g fill="rgba(0,0,0,0.25)">
    <rect x="170" y="380" width="60" height="3"/>
    <rect x="170" y="480" width="60" height="3"/>
    <rect x="170" y="580" width="60" height="3"/>
    <rect x="170" y="680" width="60" height="3"/>
    <rect x="170" y="780" width="60" height="3"/>
    <rect x="794" y="380" width="60" height="3"/>
    <rect x="794" y="480" width="60" height="3"/>
    <rect x="794" y="580" width="60" height="3"/>
    <rect x="794" y="680" width="60" height="3"/>
    <rect x="794" y="780" width="60" height="3"/>
  </g>

  <!-- Tower interior background -->
  <rect x="230" y="280" width="564" height="540" fill="#f8fafc"/>

  <!-- Bricks: 5 floors x 10 bricks (showing the 10er-System), bottom 3 full, then progressively less -->
  <!-- Brick size: about 54x96 with 4px gap, starting at x=234 y=284 -->
  <g>
    <!-- Floor 1 (bottom) - full row -->
    <rect x="234" y="724" width="54" height="92" rx="5" fill="#ef4444"/>
    <rect x="290" y="724" width="54" height="92" rx="5" fill="#f97316"/>
    <rect x="346" y="724" width="54" height="92" rx="5" fill="#f59e0b"/>
    <rect x="402" y="724" width="54" height="92" rx="5" fill="#eab308"/>
    <rect x="458" y="724" width="54" height="92" rx="5" fill="#84cc16"/>
    <rect x="514" y="724" width="54" height="92" rx="5" fill="#22c55e"/>
    <rect x="570" y="724" width="54" height="92" rx="5" fill="#14b8a6"/>
    <rect x="626" y="724" width="54" height="92" rx="5" fill="#0ea5e9"/>
    <rect x="682" y="724" width="54" height="92" rx="5" fill="#a855f7"/>
    <rect x="738" y="724" width="54" height="92" rx="5" fill="#ec4899"/>

    <!-- Floor 2 - full row -->
    <rect x="234" y="624" width="54" height="92" rx="5" fill="#ef4444"/>
    <rect x="290" y="624" width="54" height="92" rx="5" fill="#f97316"/>
    <rect x="346" y="624" width="54" height="92" rx="5" fill="#f59e0b"/>
    <rect x="402" y="624" width="54" height="92" rx="5" fill="#eab308"/>
    <rect x="458" y="624" width="54" height="92" rx="5" fill="#84cc16"/>
    <rect x="514" y="624" width="54" height="92" rx="5" fill="#22c55e"/>
    <rect x="570" y="624" width="54" height="92" rx="5" fill="#14b8a6"/>
    <rect x="626" y="624" width="54" height="92" rx="5" fill="#0ea5e9"/>
    <rect x="682" y="624" width="54" height="92" rx="5" fill="#a855f7"/>
    <rect x="738" y="624" width="54" height="92" rx="5" fill="#ec4899"/>

    <!-- Floor 3 - 7 bricks (suggests "in progress") -->
    <rect x="234" y="524" width="54" height="92" rx="5" fill="#ef4444"/>
    <rect x="290" y="524" width="54" height="92" rx="5" fill="#f97316"/>
    <rect x="346" y="524" width="54" height="92" rx="5" fill="#f59e0b"/>
    <rect x="402" y="524" width="54" height="92" rx="5" fill="#eab308"/>
    <rect x="458" y="524" width="54" height="92" rx="5" fill="#84cc16"/>
    <rect x="514" y="524" width="54" height="92" rx="5" fill="#22c55e"/>
    <rect x="570" y="524" width="54" height="92" rx="5" fill="#14b8a6"/>

    <!-- Floor 4 - 3 bricks -->
    <rect x="234" y="424" width="54" height="92" rx="5" fill="#ef4444"/>
    <rect x="290" y="424" width="54" height="92" rx="5" fill="#f97316"/>
    <rect x="346" y="424" width="54" height="92" rx="5" fill="#f59e0b"/>
  </g>

  <!-- Inner highlight on bricks (subtle) -->
  <g fill="rgba(255,255,255,0.35)">
    <rect x="234" y="724" width="54" height="6" rx="3"/>
    <rect x="234" y="624" width="54" height="6" rx="3"/>
    <rect x="234" y="524" width="54" height="6" rx="3"/>
    <rect x="234" y="424" width="54" height="6" rx="3"/>
  </g>

  <!-- Floor dividers (horizontal lines between rows) -->
  <g stroke="rgba(120,53,15,0.2)" stroke-width="2">
    <line x1="234" y1="722" x2="792" y2="722"/>
    <line x1="234" y1="622" x2="792" y2="622"/>
    <line x1="234" y1="522" x2="792" y2="522"/>
    <line x1="234" y1="422" x2="792" y2="422"/>
  </g>

  <!-- Ground / grass -->
  <rect x="120" y="820" width="784" height="50" fill="url(#grass)" rx="8"/>
</svg>
